<svg xmlns="http://www.w3.org/2000/svg" viewBox="0 0 280 340" fill="none">
  <rect width="280" height="340" rx="28" fill="#FFF7ED"/>
  <rect x="14" y="14" width="252" height="312" rx="22" fill="#FFFFFF" stroke="#F5C9A8" stroke-width="3"/>
  <text x="28" y="42" fill="#9A6B4A" font-family="Nunito,sans-serif" font-size="11" font-weight="700">Name: ______  Date: ____</text>
  <path d="M28 54h224" stroke="#F0E0D0" stroke-width="2"/>
  <!-- big hollow A -->
  <path d="M90 210 L140 70 L190 210" stroke="#F08C4A" stroke-width="16" stroke-linecap="round" stroke-linejoin="round" fill="none"/>
  <path d="M108 155h64" stroke="#F08C4A" stroke-width="16" stroke-linecap="round"/>
  <!-- guide arrow -->
  <path d="M120 88c-10 24-8 50 0 70" stroke="#FFB86B" stroke-width="3" stroke-dasharray="4 5" fill="none"/>
  <path d="M112 150l10 12 6-14" fill="#FFB86B"/>
  <!-- practice row dotted -->
  <text x="36" y="250" fill="#F5C9A8" font-family="Fredoka,sans-serif" font-size="28" font-weight="700" letter-spacing="10">A A A A</text>
  <path d="M32 258h216" stroke="#F0E0D0" stroke-width="1.5" stroke-dasharray="4 6"/>
  <text x="36" y="298" fill="#F5C9A8" font-family="Fredoka,sans-serif" font-size="28" font-weight="700" letter-spacing="10">A A A A</text>
  <path d="M32 306h216" stroke="#F0E0D0" stroke-width="1.5" stroke-dasharray="4 6"/>
  <!-- apple -->
  <circle cx="220" cy="95" r="22" fill="none" stroke="#E86A4A" stroke-width="4"/>
  <path d="M220 72c2-10 12-14 16-8" stroke="#5CBF7A" stroke-width="3" stroke-linecap="round"/>
  <ellipse cx="226" cy="68" rx="7" ry="4" fill="#5CBF7A" transform="rotate(20 226 68)"/>
</svg>
